<?xml version="1.0" standalone="no"?><!DOCTYPE svg PUBLIC "-//W3C//DTD SVG 1.1//EN"
        "http://www.w3.org/Graphics/SVG/1.1/DTD/svg11.dtd">
<svg t="1679484337764" class="icon" viewBox="0 0 1024 1024" version="1.1" xmlns="http://www.w3.org/2000/svg" p-id="2844"
     xmlns:xlink="http://www.w3.org/1999/xlink" width="200" height="200">
    <path d="M718.570667 224.64c-12.394667-9.237333-27.904-6.165333-37.184 0-9.301333 9.216-15.509333 24.597333-9.301334 36.885333 6.186667 12.309333 9.301333 27.669333 12.373334 43.050667-83.690667-193.706667-223.189333-236.778667-229.376-239.850667-9.301333-3.072-21.696 0-27.904 6.165334-9.301333 6.144-12.394667 18.432-9.301334 27.669333 12.394667 83.029333-24.810667 181.418667-111.594666 298.261333-6.208-24.597333-15.509333-49.194667-30.997334-76.864-9.301333-9.237333-21.717333-15.381333-34.112-12.309333-15.488 3.072-24.789333 12.309333-24.789333 27.669333-3.114667 46.122667-24.810667 89.173333-49.6 135.296-21.717333 39.978667-43.413333 83.029333-52.693333 129.152-31.018667 147.584 34.090667 255.210667 216.981333 353.6 6.186667 3.093333 9.301333 3.093333 15.509333 3.093334 9.301333 0 18.602667-6.165333 24.789334-12.309334 9.301333-15.36 6.186667-33.813333-9.301334-43.050666l-3.093333-3.072C176.085333 796.586667 151.253333 713.536 172.970667 612.053333c9.301333-39.957333 27.904-73.792 46.506666-113.749333 12.394667-18.453333 21.696-36.906667 27.904-55.36 0 9.216 3.093333 21.525333 3.093334 30.741333 0 12.309333 9.301333 24.618667 21.696 27.690667 12.416 3.072 24.810667 0 34.112-9.237333 108.501333-129.152 167.402667-245.973333 173.589333-350.528 49.6 30.741333 133.312 104.533333 176.704 261.354666 3.093333 9.237333 9.301333 18.453333 21.696 21.546667 9.301333 3.050667 21.696 0 27.904-6.165333 24.789333-21.525333 37.205333-52.266667 40.298667-83.029334 52.693333 64.576 111.594667 169.130667 105.386666 276.736-6.186667 89.173333-55.786667 166.058667-145.685333 233.706667 34.090667-159.893333-30.997333-344.384-173.610667-439.722667-9.301333-6.144-21.696-6.144-30.997333-3.072-9.301333 6.144-15.488 15.381333-15.488 27.669334-3.093333 86.101333-46.506667 138.389333-86.805333 190.656-34.090667 43.050667-68.202667 86.101333-74.389334 144.512 0 15.36 12.373333 30.762667 27.882667 33.834666 18.602667 3.072 30.997333-12.309333 34.112-27.669333 3.093333-39.978667 30.997333-73.813333 58.88-110.72 34.133333-43.029333 74.410667-95.317333 93.013333-169.109333 111.594667 104.533333 148.8 289.045333 80.597334 418.197333v3.072c0 3.072 0 3.072-3.093334 6.144v12.309333c0 3.072 0 3.072 3.093334 6.144v3.072l3.114666 3.072c0 3.072 3.093333 3.072 3.093334 6.144 0 0 3.093333 3.072 6.186666 3.072l3.114667 3.093334s3.093333 0 3.093333 3.072h18.602667c3.093333 0 6.186667 0 9.301333-3.072 158.08-86.101333 244.906667-199.893333 251.093334-332.096 9.301333-206.016-164.288-378.218667-198.4-399.744z"
          fill="#000000" p-id="2845"></path>
</svg>